<?xml version="1.0" encoding="utf-8"?>
<!-- Generator: Adobe Illustrator 25.1.0, SVG Export Plug-In . SVG Version: 6.00 Build 0)  -->
<svg version="1.1" id="Layer_1" xmlns="http://www.w3.org/2000/svg" xmlns:xlink="http://www.w3.org/1999/xlink" x="0px" y="0px"
	 viewBox="0 0 904.49 366.75" style="enable-background:new 0 0 904.49 366.75;" xml:space="preserve">
<style type="text/css">
	.st0{fill:#FFFFFF;}
	.st1{fill:none;stroke:#FFFFFF;stroke-width:9.9777;stroke-miterlimit:10;}
	.st2{fill:none;stroke:#FFFFFF;stroke-width:9;stroke-linejoin:round;stroke-miterlimit:10;}
	.st3{fill:#FFFFFF;stroke:#1F2734;stroke-width:4.9888;stroke-linejoin:round;stroke-miterlimit:10;}
	.st4{fill:#7AE9C5;stroke:#1F2734;stroke-width:4.9888;stroke-linejoin:round;stroke-miterlimit:10;}
	.st5{fill:#20B0A9;stroke:#1F2734;stroke-width:4.9888;stroke-linejoin:round;stroke-miterlimit:10;}
	.st6{fill:#20B0A9;}
	.st7{fill:none;stroke:#20B0A9;stroke-width:9.9777;stroke-miterlimit:10;}
	.st8{fill:#FFFFFF;stroke:#20B0A9;stroke-width:9;stroke-linejoin:round;stroke-miterlimit:10;}
	.st9{fill:#FFFFFF;stroke:#20B0A9;stroke-width:3.2843;stroke-linejoin:round;stroke-miterlimit:10;}
	.st10{clip-path:url(#SVGID_2_);}
	.st11{clip-path:url(#SVGID_4_);fill:#7AE9C5;}
	.st12{clip-path:url(#SVGID_6_);}
	.st13{clip-path:url(#SVGID_8_);fill:#20B0A9;}
	.st14{clip-path:url(#SVGID_11_);}
	.st15{clip-path:url(#SVGID_12_);}
	.st16{clip-path:url(#SVGID_14_);fill:#FFFFFF;}
	.st17{clip-path:url(#SVGID_16_);}
	.st18{clip-path:url(#SVGID_18_);fill:#1F2734;}
	.st19{clip-path:url(#SVGID_20_);}
	.st20{clip-path:url(#SVGID_22_);fill:#1F2734;}
	.st21{clip-path:url(#SVGID_24_);}
	.st22{clip-path:url(#SVGID_26_);fill:#1F2734;}
	.st23{fill:#FFFFFF;stroke:#1F2734;stroke-width:1.6738;stroke-miterlimit:10;}
	.st24{clip-path:url(#SVGID_28_);}
	.st25{clip-path:url(#SVGID_30_);enable-background:new    ;}
	.st26{clip-path:url(#SVGID_32_);}
	.st27{clip-path:url(#SVGID_34_);}
	.st28{clip-path:url(#SVGID_36_);fill:#FFFFFF;}
	.st29{clip-path:url(#SVGID_38_);fill:none;stroke:#1F2734;stroke-width:3.3476;stroke-miterlimit:10;}
	.st30{clip-path:url(#SVGID_40_);}
	.st31{clip-path:url(#SVGID_42_);enable-background:new    ;}
	.st32{clip-path:url(#SVGID_44_);}
	.st33{clip-path:url(#SVGID_46_);}
	.st34{clip-path:url(#SVGID_48_);fill:#FFFFFF;}
	.st35{clip-path:url(#SVGID_50_);fill:none;stroke:#1F2734;stroke-width:3.3476;stroke-miterlimit:10;}
	.st36{clip-path:url(#SVGID_52_);}
	.st37{clip-path:url(#SVGID_54_);fill:#1F2734;}
	.st38{clip-path:url(#SVGID_56_);}
	.st39{clip-path:url(#SVGID_58_);fill:#1F2734;}
</style>
<g>
	<rect class="st0" width="904.49" height="366.75"/>
	<g>
		<g>
			<rect x="533.96" y="27.64" class="st6" width="28.54" height="24.89"/>
			<path class="st6" d="M371.02,26.68h29.29l-46.52,136.27h-31.63L275.74,26.68h29.29c0,0,32.66,108.51,33.04,111
				C338.76,131.95,371.02,26.68,371.02,26.68z"/>
			<path class="st6" d="M510.37,110.45c0,17.03-4.49,30.36-13.48,39.96c-8.98,9.61-21.49,14.41-37.53,14.41
				c-10.05,0-18.91-2.2-26.58-6.6c-7.67-4.4-13.57-10.72-17.69-18.95c-4.12-8.24-6.18-17.84-6.18-28.83
				c0-17.09,4.46-30.38,13.38-39.87c8.93-9.48,21.47-14.23,37.63-14.23c10.05,0,18.9,2.19,26.58,6.55
				c7.67,4.37,13.57,10.64,17.69,18.81C508.32,89.89,510.37,99.47,510.37,110.45z M438.03,110.45c0,10.36,1.7,18.19,5.1,23.49
				c3.4,5.3,8.94,7.96,16.61,7.96c7.61,0,13.09-2.64,16.42-7.91c3.34-5.27,5.01-13.12,5.01-23.54c0-10.36-1.69-18.12-5.06-23.3
				c-3.37-5.18-8.89-7.77-16.56-7.77c-7.61,0-13.1,2.57-16.47,7.72C439.72,92.25,438.03,100.03,438.03,110.45z"/>
			<rect x="533.96" y="59.28" class="st6" width="28.54" height="104.63"/>
			<path class="st6" d="M634.94,164.83c-32.57,0-48.86-17.88-48.86-53.63c0-17.78,4.43-31.37,13.29-40.76
				c8.86-9.39,21.56-14.09,38.09-14.09c12.1,0,22.96,2.37,32.57,7.11l-8.42,22.09c-4.49-1.81-8.67-3.29-12.54-4.45
				c-3.87-1.15-7.74-1.73-11.6-1.73c-14.85,0-22.27,10.55-22.27,31.63c0,20.47,7.42,30.7,22.27,30.7c5.49,0,10.58-0.73,15.25-2.2
				c4.68-1.47,9.36-3.76,14.04-6.88v24.43c-4.62,2.93-9.28,4.96-13.99,6.08C648.06,164.27,642.12,164.83,634.94,164.83z"/>
			<path class="st6" d="M738.36,164.83c-16.85,0-30.01-4.65-39.5-13.95c-9.49-9.3-14.23-22.46-14.23-39.5
				c0-17.53,4.38-31.09,13.15-40.67c8.77-9.58,20.89-14.37,36.36-14.37c14.79,0,26.3,4.21,34.53,12.63
				c8.24,8.42,12.36,20.06,12.36,34.91v13.85h-67.48c0.31,8.11,2.71,14.45,7.21,19c4.49,4.56,10.79,6.83,18.9,6.83
				c6.3,0,12.26-0.66,17.88-1.97c5.62-1.31,11.48-3.4,17.6-6.27v22.09c-4.99,2.5-10.33,4.35-16,5.57
				C753.46,164.22,746.54,164.83,738.36,164.83z M734.34,76.66c-6.05,0-10.8,1.92-14.23,5.76c-3.43,3.84-5.4,9.28-5.9,16.33h40.06
				c-0.13-7.05-1.97-12.49-5.52-16.33S740.39,76.66,734.34,76.66z"/>
			<g>
				<path class="st7" d="M801.93,94.6l1.04,1.79c6.84,11.76,6.43,26.37-1.04,37.74v0"/>
				<path class="st7" d="M816.86,78.08L816.86,78.08c12.1,21.87,12.49,48.32,1.05,70.54l-1.05,2.03"/>
				<path class="st7" d="M835.22,68.98l1.02,2.07c13.84,28.04,13.46,61-1.02,88.71v0"/>
			</g>
		</g>
		<g>
			<path class="st6" d="M486.7,336.91c-16.85,0-30.01-4.65-39.5-13.95c-9.49-9.3-14.23-22.46-14.23-39.5
				c0-17.53,4.38-31.09,13.15-40.67c8.77-9.58,20.89-14.37,36.36-14.37c14.79,0,26.3,4.21,34.53,12.63
				c8.24,8.42,12.36,20.06,12.36,34.91v13.85h-67.48c0.31,8.11,2.71,14.45,7.21,19c4.49,4.56,10.79,6.83,18.9,6.83
				c6.3,0,12.26-0.66,17.88-1.97c5.62-1.31,11.48-3.4,17.6-6.27v22.09c-4.99,2.5-10.33,4.35-16,5.57
				C501.8,336.3,494.87,336.91,486.7,336.91z M482.67,248.74c-6.05,0-10.8,1.92-14.23,5.76c-3.43,3.84-5.4,9.28-5.9,16.33h40.06
				c-0.13-7.05-1.97-12.49-5.52-16.33C493.53,250.66,488.72,248.74,482.67,248.74z"/>
			<path class="st6" d="M415.39,268.1c0,21.74-6.04,38.36-18.11,49.87c-12.07,11.5-29.46,17.25-52.16,17.25h-36.85V203.51H349
				c20.96,0,37.27,5.65,48.92,16.94C409.57,231.74,415.39,247.62,415.39,268.1z M392.69,268.82c0-31.53-14.75-47.3-44.24-47.3H329.8
				v95.59h15.32C376.83,317.11,392.69,301.02,392.69,268.82z"/>
			<path class="st6" d="M665.68,242.46v-32.21h22.94v32.21h25.38v16.96h-25.38l-0.07,35.04c0,27.54,0.07,22.65,22.6,22.65h2.85
				v18.11h-21.05h-4.67c-12.48,0-22.6-13.09-22.6-22.6v-53.2h-17.81v-17.45L665.68,242.46z"/>
			<path class="st6" d="M831.54,201.46h22.94l-0.07,93c0,8.84-1.23,22.65,9.74,22.65h2.85v18.11h-8.19h-4.67
				c-12.48,0-22.6-13.09-22.6-22.6V201.46z"/>
			<path class="st6" d="M791,334.66l-4.09-13.4h-0.7c-4.64,5.86-9.31,9.85-14.01,11.97c-4.7,2.12-10.73,3.18-18.1,3.18
				c-9.46,0-16.84-2.55-22.15-7.66c-5.31-5.1-7.96-12.33-7.96-21.67c0-9.92,3.68-17.4,11.05-22.45s18.59-7.8,33.68-8.27l16.62-0.52
				v-5.13c0-6.15-1.43-10.75-4.31-13.79c-2.87-3.05-7.32-4.57-13.36-4.57c-4.93,0-9.66,0.73-14.18,2.18
				c-4.53,1.45-8.88,3.16-13.05,5.13l-6.62-14.62c5.22-2.73,10.93-4.8,17.14-6.22c6.21-1.42,12.07-2.13,17.58-2.13
				c12.24,0,21.48,2.67,27.72,8.01c6.24,5.34,9.35,13.72,9.35,25.15v64.83H791z M760.55,320.74c7.42,0,13.38-2.07,17.88-6.22
				c4.5-4.15,6.75-9.96,6.75-17.45v-8.35l-12.36,0.52c-9.63,0.35-16.63,1.96-21.01,4.83c-4.38,2.87-6.57,7.27-6.57,13.18
				c0,4.29,1.28,7.61,3.83,9.96C751.62,319.56,755.44,320.74,760.55,320.74z"/>
			<path class="st8" d="M637.08,253.87c-1.97-13.06-12.57-23.6-25.64-25.48c-9.12-1.31-17.61,1.41-23.95,6.65
				c-6.11-5.05-14.22-7.76-22.96-6.78c-12.22,1.38-22.54,10.36-25.85,22.2c-1.43,5.12-0.41,15.45-0.05,16.04
				c0.39,1.44,0.88,2.84,1.46,4.19c1.68,3.88,3.31,7.78,4.39,11.87c4.16,15.82,7.27,36.9,8.5,45.97c0.52,3.82,3.18,7.08,7.04,8.31
				c3.25,1.03,6.8,0.15,9.5-1.94c2.26-1.74,3.96-5.67,3.96-8.52l0-23.91c0-7.32,3.88-17.26,12.15-18.44
				c9.86-1.4,12.17,11.09,12.59,18.44l0,23.88c0,3.27,1.33,6.48,3.9,8.5c2.7,2.12,6.29,3.02,9.56,1.99
				c3.86-1.22,6.52-4.48,7.04-8.31c0.79-5.83,2.36-16.63,4.48-27.8c1.85-9.74,5.74-18.88,10.5-27.57
				C636.78,267.58,638.14,260.92,637.08,253.87z"/>
		</g>
		<g>
			<g>
				<path class="st5" d="M232.06,293.21H37.5V45.53c0-10.29,8.34-18.63,18.63-18.63h157.31c10.29,0,18.63,8.34,18.63,18.63V293.21z"
					/>
				<path class="st3" d="M232.06,293.21H37.5v28.22c0,10.29,8.34,18.63,18.63,18.63h157.31c10.29,0,18.63-8.34,18.63-18.63V293.21z"
					/>
			</g>
			<path class="st3" d="M211.39,134.95c-2.99-19.83-19.09-35.85-38.95-38.7c-13.85-1.99-26.75,2.15-36.38,10.1
				c-9.28-7.67-21.6-11.79-34.88-10.29c-18.56,2.09-34.24,15.73-39.27,33.72c-2.17,7.77-0.62,23.47-0.08,24.37
				c0.59,2.19,1.33,4.31,2.22,6.36c2.55,5.9,5.03,11.82,6.67,18.03c6.32,24.03,11.04,56.04,12.92,69.83
				c0.79,5.8,4.83,10.76,10.69,12.62c4.93,1.56,10.32,0.22,14.43-2.95c3.43-2.65,6.02-8.62,6.02-12.95l0-36.31
				c0-11.12,5.89-26.22,18.46-28.01c14.97-2.13,18.48,16.85,19.13,28.01l0,36.28c0,4.96,2.03,9.85,5.93,12.91
				c4.1,3.22,9.55,4.59,14.52,3.02c5.87-1.85,9.91-6.81,10.69-12.62c1.2-8.86,3.58-25.25,6.8-42.22
				c2.81-14.79,8.72-28.67,15.95-41.87C210.92,155.77,213,145.66,211.39,134.95z"/>
			<path class="st3" d="M150.01,56.58h-24.6c-16.39,0-29.67-13.28-29.67-29.67v0h83.94v0C179.68,43.29,166.4,56.58,150.01,56.58z"/>
		</g>
	</g>
</g>
<g>
	<g>
		<defs>
			<path id="SVGID_1_" d="M1911.87,629.42c19.27-58.53,48.36-146.97-15.71-187.16c-21.89-13.74-43.15-20.41-64.98-20.41
				c-23.54,0-42.76,8.1-56.79,14.01c-6.43,2.71-14.43,6.09-17.63,6.09c-3.19,0-11.2-3.38-17.63-6.09
				c-14.04-5.91-33.25-14.01-56.79-14.01c-21.83,0-43.09,6.68-64.99,20.41c-64.06,40.2-34.97,128.63-15.7,187.16
				c5.95,18.1,11.58,35.2,12.42,44.44c1.49,16.24-0.17,37.03-1.92,59.05c-2.79,34.97-5.66,71.12,2.69,101.61
				c14.16,51.63,59.26,89.14,61.18,90.72c4.2,3.44,9.29,5.32,14.48,5.6c0.45,0.03,0.92,0.04,1.38,0.04
				c13.66,0,24.75-11.01,24.75-24.6c0-2.24-0.3-4.41-0.87-6.47c-2.11-12.39-12.9-82.15,3.36-126.67
				c12.13-33.21,29.98-50.66,37.63-55.28c7.65,4.62,25.5,22.07,37.64,55.28c17.8,48.74,3.17,127.78,3.02,128.57
				c-1.93,10.18,2.76,20.46,11.73,25.74c3.9,2.29,8.25,3.42,12.58,3.42c5.64,0,11.23-1.9,15.77-5.64
				c1.92-1.58,47.03-39.09,61.18-90.72c8.35-30.5,5.48-66.67,2.69-101.64c-1.75-22.01-3.41-42.78-1.92-59.02
				C1900.29,664.63,1905.91,647.53,1911.87,629.42"/>
		</defs>
		<use xlink:href="#SVGID_1_"  style="overflow:visible;fill-rule:evenodd;clip-rule:evenodd;fill:#FFFFFF;"/>
		<clipPath id="SVGID_2_">
			<use xlink:href="#SVGID_1_"  style="overflow:visible;"/>
		</clipPath>
		<g class="st10">
			<defs>
				<rect id="SVGID_3_" x="-103.1" y="338.03" width="2924.1" height="801.74"/>
			</defs>
			<use xlink:href="#SVGID_3_"  style="overflow:visible;fill:#7AE9C5;"/>
			<clipPath id="SVGID_4_">
				<use xlink:href="#SVGID_3_"  style="overflow:visible;"/>
			</clipPath>
		</g>
	</g>
	<g>
		<defs>
			<path id="SVGID_5_" d="M1884.64,442.26c-21.89-13.74-43.15-20.41-64.98-20.41c-23.54,0-42.76,8.1-56.79,14.01
				c-6.43,2.71-14.44,6.09-17.63,6.09c-3.19,0-11.2-3.38-17.63-6.09c-14.04-5.91-33.25-14.01-56.79-14.01
				c-21.83,0-43.09,6.68-64.99,20.41c-64.06,40.2-34.96,128.63-15.7,187.16c5.95,18.1,11.58,35.2,12.42,44.44
				c1.49,16.24-0.17,37.03-1.92,59.05c-2.79,34.97-5.66,71.12,2.69,101.61c14.16,51.63,59.26,89.14,61.18,90.72
				c4.2,3.44,9.29,5.32,14.48,5.6c0.45,0.03,0.92,0.04,1.38,0.04c13.66,0,30.09-10.7,30.09-24.3c0-2.24-0.3-4.41-0.87-6.47
				c-2.11-12.39-6.53,0.28-6.53-58.48c0-37.44,24.55-68.33,42.18-68.09c17.63-0.24,52.39,28.53,52.39,68.09
				c0,54.94,0.15,63.85,0,64.64c-1.93,10.18-8.98,12.38,0,17.65c3.9,2.29,8.25,6.95,12.58,6.95c5.63,0,11.23-1.9,15.77-5.64
				c1.91-1.58,47.03-39.09,61.18-90.72c8.35-30.5,5.48-66.67,2.69-101.64c-1.75-22.01-3.41-42.78-1.92-59.02
				c0.84-9.23,6.47-26.33,12.42-44.43C1919.61,570.89,1948.71,482.46,1884.64,442.26z"/>
		</defs>
		<clipPath id="SVGID_6_">
			<use xlink:href="#SVGID_5_"  style="overflow:visible;"/>
		</clipPath>
		<g class="st12">
			<defs>
				<rect id="SVGID_7_" x="-103.1" y="338.03" width="2924.1" height="801.74"/>
			</defs>
			<clipPath id="SVGID_8_">
				<use xlink:href="#SVGID_7_"  style="overflow:visible;"/>
			</clipPath>
		</g>
	</g>
	<g>
		<defs>
			<path id="SVGID_9_" d="M1762.87,435.86c-4.8,2.03-10.48,4.43-14.38,5.51c1.32,0.37,2.44,0.59,3.25,0.59"/>
		</defs>
		<defs>
			<path id="SVGID_10_" d="M1751.74,441.95c3.2,0,11.2-3.38,17.63-6.09c13.4-5.64,31.58-13.21,53.67-13.88
				c-1.13-0.04-2.25-0.13-3.38-0.13"/>
		</defs>
		<clipPath id="SVGID_11_">
			<use xlink:href="#SVGID_9_"  style="overflow:visible;"/>
		</clipPath>
		<clipPath id="SVGID_12_" class="st14">
			<use xlink:href="#SVGID_10_"  style="overflow:visible;"/>
		</clipPath>
		<g class="st15">
			<defs>
				<rect id="SVGID_13_" x="-103.1" y="338.03" width="2924.1" height="801.74"/>
			</defs>
			<clipPath id="SVGID_14_">
				<use xlink:href="#SVGID_13_"  style="overflow:visible;"/>
			</clipPath>
		</g>
	</g>
	<g>
		<defs>
			<path id="SVGID_15_" d="M1796.98,909.33c0.17-0.59,16.71-58.96-3.41-94.96c-13.71-24.53-33.89-37.42-42.54-40.83
				c-1.06,0.43-2.89-0.71-4.27,0c9.84,5.06,27.43,19.31,39.46,40.83c20.12,36,3.58,94.38,3.41,94.96
				c-2.18,7.52,3.11,15.12,13.26,19.01c4.41,1.69,9.33,2.53,14.22,2.53c1.15,0,2.28-0.1,3.43-0.19c-3.56-0.33-7.06-1.1-10.3-2.34
				C1800.1,924.45,1794.8,916.85,1796.98,909.33z"/>
		</defs>
		<clipPath id="SVGID_16_">
			<use xlink:href="#SVGID_15_"  style="overflow:visible;"/>
		</clipPath>
		<g class="st17">
			<defs>
				<rect id="SVGID_17_" x="-103.1" y="338.03" width="2924.1" height="801.74"/>
			</defs>
			<clipPath id="SVGID_18_">
				<use xlink:href="#SVGID_17_"  style="overflow:visible;"/>
			</clipPath>
		</g>
	</g>
	<g>
		<defs>
			<path id="SVGID_19_" d="M1671,925.24c-1.92-1.58-47.02-39.09-61.18-90.72c-8.35-30.49-5.48-66.64-2.69-101.61
				c1.76-22.02,3.41-42.81,1.92-59.05c-0.84-9.24-6.47-26.34-12.42-44.44c-19.26-58.53-48.36-146.97,15.7-187.16
				c20.76-13.03,40.96-19.62,61.6-20.28c-1.05-0.04-2.06-0.13-3.12-0.13c-21.83,0-43.09,6.67-64.99,20.41
				c-64.06,40.2-34.96,128.63-15.7,187.16c5.95,18.1,11.58,35.2,12.42,44.44c1.49,16.24-0.17,37.03-1.92,59.05
				c-2.79,34.96-5.66,71.12,2.69,101.61c14.16,51.63,59.26,89.14,61.18,90.72c4.2,3.44,9.29,5.32,14.49,5.6
				c0.45,0.03,0.91,0.04,1.38,0.04c1.05,0,2.05-0.18,3.06-0.31C1678.96,929.96,1674.64,928.22,1671,925.24"/>
		</defs>
		<clipPath id="SVGID_20_">
			<use xlink:href="#SVGID_19_"  style="overflow:visible;"/>
		</clipPath>
		<g class="st19">
			<defs>
				<rect id="SVGID_21_" x="-103.1" y="338.03" width="2924.1" height="801.74"/>
			</defs>
			<clipPath id="SVGID_22_">
				<use xlink:href="#SVGID_21_"  style="overflow:visible;"/>
			</clipPath>
		</g>
	</g>
	<g>
		<defs>
			<path id="SVGID_23_" d="M1908.48,576.87c-13.34-61.83-92.78-119.53-69.68-137.15c3.79-2.89,8.85-3.48,13.35-1.89
				C1909.91,458.22,1933.55,513.23,1908.48,576.87z"/>
		</defs>
		<clipPath id="SVGID_24_">
			<use xlink:href="#SVGID_23_"  style="overflow:visible;"/>
		</clipPath>
		<g class="st21">
			<defs>
				<rect id="SVGID_25_" x="-103.1" y="338.03" width="2924.1" height="801.74"/>
			</defs>
			<clipPath id="SVGID_26_">
				<use xlink:href="#SVGID_25_"  style="overflow:visible;"/>
			</clipPath>
		</g>
	</g>
	<g>
		<defs>
			<circle id="SVGID_27_" cx="1687.01" cy="548.09" r="32.64"/>
		</defs>
		<clipPath id="SVGID_28_">
			<use xlink:href="#SVGID_27_"  style="overflow:visible;"/>
		</clipPath>
		<g class="st24">
			<defs>
				<rect id="SVGID_29_" x="-103.1" y="338.03" width="2924.1" height="801.74"/>
			</defs>
			<clipPath id="SVGID_30_">
				<use xlink:href="#SVGID_29_"  style="overflow:visible;"/>
			</clipPath>
		</g>
	</g>
	<g>
		<defs>
			<circle id="SVGID_39_" cx="1807.52" cy="548.09" r="32.64"/>
		</defs>
		<clipPath id="SVGID_32_">
			<use xlink:href="#SVGID_39_"  style="overflow:visible;"/>
		</clipPath>
		<g class="st26">
			<defs>
				<rect id="SVGID_41_" x="-103.1" y="338.03" width="2924.1" height="801.74"/>
			</defs>
			<clipPath id="SVGID_34_">
				<use xlink:href="#SVGID_41_"  style="overflow:visible;"/>
			</clipPath>
		</g>
	</g>
	<g>
		<defs>
			<circle id="SVGID_51_" cx="1687.26" cy="546.42" r="14.23"/>
		</defs>
		<clipPath id="SVGID_36_">
			<use xlink:href="#SVGID_51_"  style="overflow:visible;"/>
		</clipPath>
		<g style="clip-path:url(#SVGID_36_);">
			<defs>
				<rect id="SVGID_53_" x="-103.1" y="338.03" width="2924.1" height="801.74"/>
			</defs>
			<clipPath id="SVGID_38_">
				<use xlink:href="#SVGID_53_"  style="overflow:visible;"/>
			</clipPath>
		</g>
	</g>
	<g>
		<defs>
			<circle id="SVGID_55_" cx="1807.28" cy="548.09" r="14.23"/>
		</defs>
		<clipPath id="SVGID_40_">
			<use xlink:href="#SVGID_55_"  style="overflow:visible;"/>
		</clipPath>
		<g class="st30">
			<defs>
				<rect id="SVGID_57_" x="-103.1" y="338.03" width="2924.1" height="801.74"/>
			</defs>
			<clipPath id="SVGID_42_">
				<use xlink:href="#SVGID_57_"  style="overflow:visible;"/>
			</clipPath>
		</g>
	</g>
</g>
</svg>
